<mxfile host="app.diagrams.net" modified="2021-06-04T15:55:15.445Z" agent="5.0 (Windows NT 6.3; Win64; x64) AppleWebKit/537.36 (KHTML, like Gecko) Chrome/91.0.4472.77 Safari/537.36" etag="uXsiGHsCHY91gMyV8PDw" version="14.7.3" type="github">
  <diagram id="A2Fy7HXazte9X5mepA1S" name="Page-1">
    <mxGraphModel dx="868" dy="450" grid="1" gridSize="10" guides="1" tooltips="1" connect="1" arrows="1" fold="1" page="1" pageScale="1" pageWidth="827" pageHeight="1169" math="0" shadow="0">
      <root>
        <mxCell id="0" />
        <mxCell id="1" parent="0" />
        <mxCell id="-Q2acR-DV0uJOi1I2KwG-3" value="" style="edgeStyle=orthogonalEdgeStyle;rounded=0;orthogonalLoop=1;jettySize=auto;html=1;" edge="1" parent="1" source="-Q2acR-DV0uJOi1I2KwG-1" target="-Q2acR-DV0uJOi1I2KwG-2">
          <mxGeometry relative="1" as="geometry" />
        </mxCell>
        <mxCell id="-Q2acR-DV0uJOi1I2KwG-1" value="inicio" style="ellipse;whiteSpace=wrap;html=1;" vertex="1" parent="1">
          <mxGeometry x="320" y="40" width="120" height="80" as="geometry" />
        </mxCell>
        <mxCell id="-Q2acR-DV0uJOi1I2KwG-5" value="" style="edgeStyle=orthogonalEdgeStyle;rounded=0;orthogonalLoop=1;jettySize=auto;html=1;" edge="1" parent="1" source="-Q2acR-DV0uJOi1I2KwG-2" target="-Q2acR-DV0uJOi1I2KwG-4">
          <mxGeometry relative="1" as="geometry" />
        </mxCell>
        <mxCell id="-Q2acR-DV0uJOi1I2KwG-2" value="num1, num2, &lt;br&gt;num3" style="shape=parallelogram;perimeter=parallelogramPerimeter;whiteSpace=wrap;html=1;fixedSize=1;" vertex="1" parent="1">
          <mxGeometry x="320" y="210" width="120" height="60" as="geometry" />
        </mxCell>
        <mxCell id="-Q2acR-DV0uJOi1I2KwG-7" value="" style="edgeStyle=orthogonalEdgeStyle;rounded=0;orthogonalLoop=1;jettySize=auto;html=1;" edge="1" parent="1" source="-Q2acR-DV0uJOi1I2KwG-4" target="-Q2acR-DV0uJOi1I2KwG-6">
          <mxGeometry relative="1" as="geometry" />
        </mxCell>
        <mxCell id="-Q2acR-DV0uJOi1I2KwG-9" value="" style="edgeStyle=orthogonalEdgeStyle;rounded=0;orthogonalLoop=1;jettySize=auto;html=1;" edge="1" parent="1" source="-Q2acR-DV0uJOi1I2KwG-4" target="-Q2acR-DV0uJOi1I2KwG-8">
          <mxGeometry relative="1" as="geometry" />
        </mxCell>
        <mxCell id="-Q2acR-DV0uJOi1I2KwG-4" value="num1&amp;gt;num2 y num1&amp;gt;num3" style="rhombus;whiteSpace=wrap;html=1;" vertex="1" parent="1">
          <mxGeometry x="340" y="340" width="80" height="80" as="geometry" />
        </mxCell>
        <mxCell id="-Q2acR-DV0uJOi1I2KwG-6" value="num1 &quot;es mayor&quot;" style="shape=document;whiteSpace=wrap;html=1;boundedLbl=1;" vertex="1" parent="1">
          <mxGeometry x="320" y="500" width="120" height="80" as="geometry" />
        </mxCell>
        <mxCell id="-Q2acR-DV0uJOi1I2KwG-11" value="" style="edgeStyle=orthogonalEdgeStyle;rounded=0;orthogonalLoop=1;jettySize=auto;html=1;" edge="1" parent="1" source="-Q2acR-DV0uJOi1I2KwG-8" target="-Q2acR-DV0uJOi1I2KwG-10">
          <mxGeometry relative="1" as="geometry" />
        </mxCell>
        <mxCell id="-Q2acR-DV0uJOi1I2KwG-13" value="" style="edgeStyle=orthogonalEdgeStyle;rounded=0;orthogonalLoop=1;jettySize=auto;html=1;" edge="1" parent="1" source="-Q2acR-DV0uJOi1I2KwG-8" target="-Q2acR-DV0uJOi1I2KwG-12">
          <mxGeometry relative="1" as="geometry" />
        </mxCell>
        <mxCell id="-Q2acR-DV0uJOi1I2KwG-8" value="num2&amp;gt;num1 y num2&amp;gt;num3" style="rhombus;whiteSpace=wrap;html=1;" vertex="1" parent="1">
          <mxGeometry x="500" y="340" width="80" height="80" as="geometry" />
        </mxCell>
        <mxCell id="-Q2acR-DV0uJOi1I2KwG-15" value="" style="edgeStyle=orthogonalEdgeStyle;rounded=0;orthogonalLoop=1;jettySize=auto;html=1;" edge="1" parent="1" source="-Q2acR-DV0uJOi1I2KwG-10">
          <mxGeometry relative="1" as="geometry">
            <mxPoint x="540" y="660" as="targetPoint" />
          </mxGeometry>
        </mxCell>
        <mxCell id="-Q2acR-DV0uJOi1I2KwG-10" value="num2 &quot;es mayor&quot;" style="shape=document;whiteSpace=wrap;html=1;boundedLbl=1;" vertex="1" parent="1">
          <mxGeometry x="480" y="500" width="120" height="80" as="geometry" />
        </mxCell>
        <mxCell id="-Q2acR-DV0uJOi1I2KwG-12" value="num3 &quot;es el mayor&quot;" style="shape=document;whiteSpace=wrap;html=1;boundedLbl=1;" vertex="1" parent="1">
          <mxGeometry x="640" y="340" width="120" height="80" as="geometry" />
        </mxCell>
        <mxCell id="-Q2acR-DV0uJOi1I2KwG-17" value="" style="endArrow=none;html=1;entryX=0.5;entryY=0.85;entryDx=0;entryDy=0;entryPerimeter=0;" edge="1" parent="1" target="-Q2acR-DV0uJOi1I2KwG-6">
          <mxGeometry width="50" height="50" relative="1" as="geometry">
            <mxPoint x="380" y="640" as="sourcePoint" />
            <mxPoint x="360" y="600" as="targetPoint" />
          </mxGeometry>
        </mxCell>
        <mxCell id="-Q2acR-DV0uJOi1I2KwG-18" value="" style="endArrow=classic;html=1;" edge="1" parent="1">
          <mxGeometry width="50" height="50" relative="1" as="geometry">
            <mxPoint x="380" y="640" as="sourcePoint" />
            <mxPoint x="540" y="640" as="targetPoint" />
          </mxGeometry>
        </mxCell>
        <mxCell id="-Q2acR-DV0uJOi1I2KwG-19" value="" style="endArrow=none;html=1;entryX=0.592;entryY=0.75;entryDx=0;entryDy=0;entryPerimeter=0;" edge="1" parent="1" target="-Q2acR-DV0uJOi1I2KwG-12">
          <mxGeometry width="50" height="50" relative="1" as="geometry">
            <mxPoint x="711" y="640" as="sourcePoint" />
            <mxPoint x="710" y="460" as="targetPoint" />
          </mxGeometry>
        </mxCell>
        <mxCell id="-Q2acR-DV0uJOi1I2KwG-20" value="" style="endArrow=classic;html=1;" edge="1" parent="1">
          <mxGeometry width="50" height="50" relative="1" as="geometry">
            <mxPoint x="710" y="640" as="sourcePoint" />
            <mxPoint x="540" y="640" as="targetPoint" />
          </mxGeometry>
        </mxCell>
        <mxCell id="-Q2acR-DV0uJOi1I2KwG-36" value="No" style="text;html=1;strokeColor=none;fillColor=none;align=center;verticalAlign=middle;whiteSpace=wrap;rounded=0;" vertex="1" parent="1">
          <mxGeometry x="434" y="350" width="40" height="20" as="geometry" />
        </mxCell>
        <mxCell id="-Q2acR-DV0uJOi1I2KwG-37" value="No" style="text;html=1;strokeColor=none;fillColor=none;align=center;verticalAlign=middle;whiteSpace=wrap;rounded=0;" vertex="1" parent="1">
          <mxGeometry x="590" y="350" width="40" height="20" as="geometry" />
        </mxCell>
        <mxCell id="-Q2acR-DV0uJOi1I2KwG-38" value="Si" style="text;html=1;strokeColor=none;fillColor=none;align=center;verticalAlign=middle;whiteSpace=wrap;rounded=0;" vertex="1" parent="1">
          <mxGeometry x="550" y="440" width="40" height="20" as="geometry" />
        </mxCell>
        <mxCell id="-Q2acR-DV0uJOi1I2KwG-39" value="Si" style="text;html=1;strokeColor=none;fillColor=none;align=center;verticalAlign=middle;whiteSpace=wrap;rounded=0;" vertex="1" parent="1">
          <mxGeometry x="394" y="440" width="40" height="20" as="geometry" />
        </mxCell>
        <mxCell id="-Q2acR-DV0uJOi1I2KwG-66" value="" style="edgeStyle=orthogonalEdgeStyle;rounded=0;orthogonalLoop=1;jettySize=auto;html=1;" edge="1" parent="1" source="-Q2acR-DV0uJOi1I2KwG-68" target="-Q2acR-DV0uJOi1I2KwG-71">
          <mxGeometry relative="1" as="geometry" />
        </mxCell>
        <mxCell id="-Q2acR-DV0uJOi1I2KwG-67" value="" style="edgeStyle=orthogonalEdgeStyle;rounded=0;orthogonalLoop=1;jettySize=auto;html=1;" edge="1" parent="1" source="-Q2acR-DV0uJOi1I2KwG-68" target="-Q2acR-DV0uJOi1I2KwG-73">
          <mxGeometry relative="1" as="geometry" />
        </mxCell>
        <mxCell id="-Q2acR-DV0uJOi1I2KwG-68" value="num1&amp;lt;num2 y num1&amp;lt;num3" style="rhombus;whiteSpace=wrap;html=1;" vertex="1" parent="1">
          <mxGeometry x="1130" y="237.5" width="80" height="80" as="geometry" />
        </mxCell>
        <mxCell id="-Q2acR-DV0uJOi1I2KwG-69" value="" style="edgeStyle=orthogonalEdgeStyle;rounded=0;orthogonalLoop=1;jettySize=auto;html=1;" edge="1" parent="1" source="-Q2acR-DV0uJOi1I2KwG-71" target="-Q2acR-DV0uJOi1I2KwG-72">
          <mxGeometry relative="1" as="geometry" />
        </mxCell>
        <mxCell id="-Q2acR-DV0uJOi1I2KwG-70" value="" style="edgeStyle=orthogonalEdgeStyle;rounded=0;orthogonalLoop=1;jettySize=auto;html=1;" edge="1" parent="1" source="-Q2acR-DV0uJOi1I2KwG-71" target="-Q2acR-DV0uJOi1I2KwG-75">
          <mxGeometry relative="1" as="geometry" />
        </mxCell>
        <mxCell id="-Q2acR-DV0uJOi1I2KwG-71" value="num2&amp;lt;num1 y num2&amp;lt;num3" style="rhombus;whiteSpace=wrap;html=1;" vertex="1" parent="1">
          <mxGeometry x="970" y="237.5" width="80" height="80" as="geometry" />
        </mxCell>
        <mxCell id="-Q2acR-DV0uJOi1I2KwG-72" value="num3 &quot;es menor&quot;" style="shape=document;whiteSpace=wrap;html=1;boundedLbl=1;" vertex="1" parent="1">
          <mxGeometry x="790" y="237.5" width="120" height="80" as="geometry" />
        </mxCell>
        <mxCell id="-Q2acR-DV0uJOi1I2KwG-73" value="num1 &quot;es menor&quot;" style="shape=document;whiteSpace=wrap;html=1;boundedLbl=1;" vertex="1" parent="1">
          <mxGeometry x="1110" y="397.5" width="120" height="80" as="geometry" />
        </mxCell>
        <mxCell id="-Q2acR-DV0uJOi1I2KwG-74" value="" style="edgeStyle=orthogonalEdgeStyle;rounded=0;orthogonalLoop=1;jettySize=auto;html=1;" edge="1" parent="1" source="-Q2acR-DV0uJOi1I2KwG-75" target="-Q2acR-DV0uJOi1I2KwG-80">
          <mxGeometry relative="1" as="geometry" />
        </mxCell>
        <mxCell id="-Q2acR-DV0uJOi1I2KwG-75" value="num2 &quot;es menor&quot;" style="shape=document;whiteSpace=wrap;html=1;boundedLbl=1;" vertex="1" parent="1">
          <mxGeometry x="950" y="397.5" width="120" height="80" as="geometry" />
        </mxCell>
        <mxCell id="-Q2acR-DV0uJOi1I2KwG-76" value="Si" style="text;html=1;strokeColor=none;fillColor=none;align=center;verticalAlign=middle;whiteSpace=wrap;rounded=0;" vertex="1" parent="1">
          <mxGeometry x="1190" y="327.5" width="40" height="20" as="geometry" />
        </mxCell>
        <mxCell id="-Q2acR-DV0uJOi1I2KwG-77" value="Si" style="text;html=1;strokeColor=none;fillColor=none;align=center;verticalAlign=middle;whiteSpace=wrap;rounded=0;" vertex="1" parent="1">
          <mxGeometry x="1024" y="327.5" width="40" height="20" as="geometry" />
        </mxCell>
        <mxCell id="-Q2acR-DV0uJOi1I2KwG-78" value="No" style="text;html=1;strokeColor=none;fillColor=none;align=center;verticalAlign=middle;whiteSpace=wrap;rounded=0;" vertex="1" parent="1">
          <mxGeometry x="1080" y="247.5" width="40" height="20" as="geometry" />
        </mxCell>
        <mxCell id="-Q2acR-DV0uJOi1I2KwG-79" value="No" style="text;html=1;strokeColor=none;fillColor=none;align=center;verticalAlign=middle;whiteSpace=wrap;rounded=0;" vertex="1" parent="1">
          <mxGeometry x="920" y="247.5" width="40" height="20" as="geometry" />
        </mxCell>
        <mxCell id="-Q2acR-DV0uJOi1I2KwG-80" value="Fin" style="ellipse;whiteSpace=wrap;html=1;" vertex="1" parent="1">
          <mxGeometry x="950" y="567.5" width="120" height="60" as="geometry" />
        </mxCell>
        <mxCell id="-Q2acR-DV0uJOi1I2KwG-81" value="" style="endArrow=none;html=1;exitX=0.408;exitY=0.95;exitDx=0;exitDy=0;exitPerimeter=0;" edge="1" parent="1" source="-Q2acR-DV0uJOi1I2KwG-72">
          <mxGeometry width="50" height="50" relative="1" as="geometry">
            <mxPoint x="820" y="397.5" as="sourcePoint" />
            <mxPoint x="839" y="537.5" as="targetPoint" />
          </mxGeometry>
        </mxCell>
        <mxCell id="-Q2acR-DV0uJOi1I2KwG-82" value="" style="endArrow=classic;html=1;" edge="1" parent="1">
          <mxGeometry width="50" height="50" relative="1" as="geometry">
            <mxPoint x="840" y="537.5" as="sourcePoint" />
            <mxPoint x="1010" y="537.5" as="targetPoint" />
          </mxGeometry>
        </mxCell>
        <mxCell id="-Q2acR-DV0uJOi1I2KwG-83" value="" style="endArrow=none;html=1;entryX=0.467;entryY=0.888;entryDx=0;entryDy=0;entryPerimeter=0;" edge="1" parent="1" target="-Q2acR-DV0uJOi1I2KwG-73">
          <mxGeometry width="50" height="50" relative="1" as="geometry">
            <mxPoint x="1166" y="537.5" as="sourcePoint" />
            <mxPoint x="1180" y="497.5" as="targetPoint" />
          </mxGeometry>
        </mxCell>
        <mxCell id="-Q2acR-DV0uJOi1I2KwG-84" value="" style="endArrow=classic;html=1;" edge="1" parent="1">
          <mxGeometry width="50" height="50" relative="1" as="geometry">
            <mxPoint x="1166" y="537.5" as="sourcePoint" />
            <mxPoint x="1010" y="537.5" as="targetPoint" />
          </mxGeometry>
        </mxCell>
        <mxCell id="-Q2acR-DV0uJOi1I2KwG-86" value="" style="endArrow=classic;html=1;exitX=0.5;exitY=1;exitDx=0;exitDy=0;entryX=0.5;entryY=0;entryDx=0;entryDy=0;" edge="1" parent="1" source="-Q2acR-DV0uJOi1I2KwG-88" target="-Q2acR-DV0uJOi1I2KwG-68">
          <mxGeometry width="50" height="50" relative="1" as="geometry">
            <mxPoint x="1010" y="185.5" as="sourcePoint" />
            <mxPoint x="1200" y="292.5" as="targetPoint" />
          </mxGeometry>
        </mxCell>
        <mxCell id="-Q2acR-DV0uJOi1I2KwG-88" value="1" style="shape=offPageConnector;whiteSpace=wrap;html=1;" vertex="1" parent="1">
          <mxGeometry x="1150" y="140" width="40" height="50" as="geometry" />
        </mxCell>
        <mxCell id="-Q2acR-DV0uJOi1I2KwG-89" value="1" style="shape=offPageConnector;whiteSpace=wrap;html=1;" vertex="1" parent="1">
          <mxGeometry x="520" y="660" width="40" height="50" as="geometry" />
        </mxCell>
      </root>
    </mxGraphModel>
  </diagram>
</mxfile>
